<svg width="220" height="213" viewBox="0 0 220 213" fill="none" xmlns="http://www.w3.org/2000/svg">
    <g clip-path="url(#clip0)">
        <g filter="url(#filter0_d)">
            <path d="M154.641 24.3214L51.3951 23.42C49.6041 23.4041 47.8274 23.7412 46.1667 24.412C44.506 25.0828 42.9936 26.0741 41.7161 27.3295C40.4385 28.5848 39.4208 30.0796 38.721 31.7283C38.0212 33.377 37.653 35.1475 37.6375 36.9385L36.4124 177.197C36.3967 178.988 36.7339 180.764 37.4048 182.425C38.0756 184.085 39.067 185.597 40.3222 186.875C41.5774 188.152 43.0719 189.17 44.7204 189.869C46.3689 190.569 48.1391 190.937 49.9298 190.953L153.18 191.854C154.971 191.87 156.748 191.533 158.408 190.862C160.068 190.191 161.581 189.2 162.858 187.944C164.135 186.689 165.153 185.195 165.852 183.546C166.552 181.898 166.92 180.127 166.936 178.337L168.16 38.076C168.176 36.2852 167.839 34.5089 167.168 32.8484C166.497 31.188 165.506 29.6759 164.25 28.3986C162.995 27.1213 161.501 26.1037 159.852 25.4039C158.204 24.7042 156.433 24.336 154.643 24.3204L154.641 24.3214Z" fill="#FF4B4B"/>
            <path d="M151.862 37.7478L116.798 37.4397C115.765 37.4309 114.77 37.8329 114.033 38.5572C113.296 39.2815 112.877 40.2689 112.868 41.3021L111.711 173.771C111.702 174.804 112.104 175.799 112.829 176.536C113.553 177.273 114.54 177.692 115.574 177.701L150.638 178.006C151.672 178.015 152.666 177.613 153.403 176.889C154.14 176.165 154.559 175.178 154.569 174.145L155.724 41.6771C155.733 40.6439 155.331 39.6494 154.607 38.9126C153.882 38.1757 152.895 37.7567 151.862 37.7478Z" fill="white"/>
            <path fill-rule="evenodd" clip-rule="evenodd" d="M33.1197 23.0004L128.576 23.8339C132.192 23.8657 135.647 25.3325 138.182 27.9117C140.717 30.491 142.123 33.9714 142.092 37.5875L140.869 177.85C140.837 181.466 139.37 184.922 136.791 187.456C134.212 189.991 130.731 191.398 127.115 191.367L31.6574 190.534C30.3782 190.523 29.1136 190.26 27.9359 189.761C26.7583 189.261 25.6906 188.534 24.7938 187.622C23.897 186.709 23.1888 185.629 22.7095 184.443C22.2302 183.257 21.9893 181.988 22.0004 180.709L23.2954 32.6544C23.3183 30.0715 24.3661 27.6035 26.2085 25.793C28.0508 23.9826 30.5368 22.9781 33.1197 23.0004Z" fill="#FF5656"/>
            <path d="M122.612 37.4182L42.7413 36.7225C41.1913 36.7089 39.6994 37.3117 38.5938 38.3981C37.4882 39.4845 36.8594 40.9656 36.8458 42.5156C36.8323 44.0656 37.435 45.5576 38.5214 46.6632C39.6078 47.7688 41.089 48.3975 42.639 48.4111L122.509 49.1068C124.059 49.1204 125.551 48.5177 126.657 47.4312C127.763 46.3448 128.391 44.8637 128.405 43.3137C128.418 41.7637 127.816 40.2718 126.729 39.1662C125.643 38.0605 124.162 37.4318 122.612 37.4182ZM111.902 148.372L53.4596 147.863C52.4265 147.854 51.4322 148.255 50.6951 148.979C49.9581 149.703 49.5387 150.69 49.5293 151.723L49.3433 173.151C49.3342 174.184 49.7358 175.179 50.4597 175.916C51.1836 176.653 52.1707 177.072 53.2037 177.082L111.648 177.595C112.681 177.604 113.676 177.202 114.412 176.478C115.149 175.753 115.568 174.766 115.577 173.733L115.765 152.304C115.774 151.27 115.372 150.276 114.648 149.539C113.923 148.802 112.936 148.383 111.903 148.374L111.902 148.372Z" fill="#FFD900"/>
            <path d="M44.5655 162.396L118.593 163.043" stroke="#FF5656" stroke-width="2.64" stroke-linecap="square"/>
            <path d="M83.2575 62.5443C102.5 62.7125 117.967 78.4482 117.798 97.6938C117.631 116.938 101.894 132.403 82.6482 132.234C63.4035 132.067 47.9388 116.33 48.1059 97.0855C48.2729 78.0755 63.6299 62.7536 82.5545 62.5457L83.2575 62.5443ZM95.4748 100.819L85.6085 100.731L84.9538 125.109C89.9344 122.93 94.4628 113.627 95.4158 101.641L95.4748 100.819ZM78.9675 100.674L70.3737 100.601C70.8788 111.226 74.2198 119.912 78.3482 123.638L78.9675 100.674ZM63.7218 100.542L54.912 100.466C55.3962 104.876 56.9138 109.111 59.3418 112.826C61.7698 116.54 65.0395 119.629 68.8856 121.843C66.0555 116.493 64.2377 109.462 63.7785 101.71L63.7198 100.543L63.7218 100.542ZM110.933 100.956L102.127 100.878C101.646 109.087 99.6598 116.519 96.5928 122.085C104.284 117.826 109.784 110.077 110.935 100.955L110.933 100.956ZM69.3133 72.6982C65.4305 74.8448 62.1084 77.8764 59.6167 81.5473C57.1249 85.2181 55.5336 89.4248 54.972 93.8258L63.7798 93.9028C64.2617 85.6953 66.2455 78.2635 69.3133 72.6982ZM79.788 70.3152C76.5293 72.4933 73.5811 77.6793 71.8665 84.5593L71.6746 85.3605L71.3801 86.7318C70.9042 89.1171 70.5877 91.5312 70.4326 93.9585L79.1454 94.0352L79.788 70.3152ZM97.0228 72.941L97.0338 72.9607C99.9988 78.58 101.847 86.0335 102.185 94.2384L110.995 94.3146C110.51 89.9044 108.993 85.6706 106.565 81.9569C104.138 78.2433 100.869 75.1544 97.0228 72.941ZM86.4323 70.2682L85.7893 94.0931L95.5328 94.1797C94.9808 82.6047 91.0657 73.3295 86.4312 70.2663L86.4323 70.2682Z" fill="#FFD900"/>
            <g filter="url(#filter1_d)">
                <path d="M191.822 153.392L168.8 145.413V126.679C168.798 125.165 169.094 123.666 169.672 122.267C170.249 120.868 171.097 119.597 172.166 118.527C173.236 117.456 174.506 116.608 175.903 116.03C177.301 115.451 178.799 115.155 180.311 115.157C181.823 115.155 183.321 115.451 184.719 116.029C186.116 116.607 187.386 117.456 188.456 118.526C189.525 119.597 190.373 120.868 190.951 122.267C191.528 123.666 191.824 125.165 191.822 126.679V153.392Z" fill="#FFC600"/>
                <path d="M178.45 129.217L134.121 164.074C136.11 169.636 139.709 174.48 144.459 177.988C149.21 181.495 154.896 183.507 160.793 183.767C166.69 184.027 172.531 182.524 177.571 179.448C182.612 176.373 186.623 171.864 189.093 166.498C192.066 160.037 192.627 152.723 190.675 145.883C188.722 139.043 184.385 133.13 178.45 129.217Z" fill="#FFC600"/>
                <path d="M155.497 152.614L155.26 152.313C154.638 151.522 153.727 151.01 152.728 150.891C151.729 150.772 150.724 151.055 149.933 151.677L123.686 172.358C122.896 172.981 122.385 173.893 122.267 174.892C122.148 175.892 122.431 176.898 123.053 177.689L123.29 177.991C123.912 178.782 124.823 179.293 125.822 179.412C126.821 179.531 127.826 179.249 128.617 178.626L154.862 157.948C155.254 157.639 155.581 157.256 155.825 156.821C156.069 156.386 156.224 155.908 156.283 155.412C156.342 154.917 156.303 154.415 156.168 153.935C156.034 153.455 155.805 153.006 155.497 152.614Z" fill="#FFC600"/>
                <path d="M166.944 153.711L166.707 153.41C166.085 152.619 165.174 152.108 164.175 151.99C163.176 151.871 162.171 152.154 161.38 152.777L135.135 173.455C134.743 173.764 134.416 174.146 134.172 174.581C133.929 175.016 133.773 175.495 133.714 175.99C133.655 176.486 133.694 176.988 133.829 177.468C133.964 177.948 134.192 178.397 134.5 178.789L134.737 179.09C135.359 179.881 136.27 180.392 137.269 180.511C138.268 180.631 139.273 180.348 140.064 179.725L166.311 159.045C167.101 158.422 167.612 157.51 167.731 156.51C167.849 155.51 167.567 154.504 166.944 153.713V153.711Z" fill="#FFC600"/>
                <path d="M194.558 124.068H187.991C187.28 124.068 186.598 124.35 186.095 124.854C185.592 125.357 185.309 126.04 185.309 126.752V126.77C185.309 128.253 186.51 129.454 187.991 129.454H194.558C195.27 129.454 195.952 129.171 196.455 128.668C196.957 128.164 197.24 127.482 197.24 126.77V126.752C197.24 126.04 196.957 125.357 196.455 124.854C195.952 124.35 195.27 124.068 194.558 124.068ZM169.146 183.319H158.365C157.862 183.319 157.379 183.519 157.023 183.875C156.668 184.231 156.468 184.714 156.468 185.218C156.468 185.721 156.668 186.204 157.023 186.56C157.379 186.917 157.862 187.117 158.365 187.117H169.146C169.65 187.117 170.132 186.917 170.488 186.56C170.844 186.204 171.044 185.721 171.044 185.218C171.044 184.714 170.844 184.231 170.488 183.875C170.132 183.519 169.65 183.319 169.146 183.319Z" fill="#FF7D00"/>
            </g>
        </g>
    </g>
    <defs>
        <filter id="filter0_d" x="-3" y="-7" width="219.24" height="212.855" filterUnits="userSpaceOnUse" color-interpolation-filters="sRGB">
            <feFlood flood-opacity="0" result="BackgroundImageFix"/>
            <feColorMatrix in="SourceAlpha" type="matrix" values="0 0 0 0 0 0 0 0 0 0 0 0 0 0 0 0 0 0 127 0"/>
            <feOffset dx="-3" dy="-8"/>
            <feGaussianBlur stdDeviation="11"/>
            <feColorMatrix type="matrix" values="0 0 0 0 0.466667 0 0 0 0 0.466667 0 0 0 0 0.466667 0 0 0 0.15 0"/>
            <feBlend mode="normal" in2="BackgroundImageFix" result="effect1_dropShadow"/>
            <feBlend mode="normal" in="SourceGraphic" in2="effect1_dropShadow" result="shape"/>
        </filter>
        <filter id="filter1_d" x="101.24" y="96.1573" width="105" height="101.96" filterUnits="userSpaceOnUse" color-interpolation-filters="sRGB">
            <feFlood flood-opacity="0" result="BackgroundImageFix"/>
            <feColorMatrix in="SourceAlpha" type="matrix" values="0 0 0 0 0 0 0 0 0 0 0 0 0 0 0 0 0 0 127 0"/>
            <feOffset dx="-6" dy="-4"/>
            <feGaussianBlur stdDeviation="7.5"/>
            <feColorMatrix type="matrix" values="0 0 0 0 0.466667 0 0 0 0 0.466667 0 0 0 0 0.466667 0 0 0 0.15 0"/>
            <feBlend mode="normal" in2="BackgroundImageFix" result="effect1_dropShadow"/>
            <feBlend mode="normal" in="SourceGraphic" in2="effect1_dropShadow" result="shape"/>
        </filter>
        <clipPath id="clip0">
            <rect width="220" height="213" fill="white"/>
        </clipPath>
    </defs>
</svg>
