<svg width="257" height="176" viewBox="0 0 257 176" fill="none" xmlns="http://www.w3.org/2000/svg">
    <path d="M231.003 175.003C239.048 175.003 245.569 168.482 245.569 160.437C245.569 152.392 239.048 145.87 231.003 145.87C222.958 145.87 216.436 152.392 216.436 160.437C216.436 168.482 222.958 175.003 231.003 175.003Z" fill="#FFB000"/>
    <path d="M255.093 130.244L229.325 125.162C228.505 125 227.704 125.505 227.535 126.289L226.95 129.002C226.781 129.786 227.308 130.553 228.128 130.714L253.896 135.796C254.716 135.958 255.518 135.453 255.687 134.669L256.271 131.956C256.44 131.172 255.913 130.405 255.093 130.244Z" fill="#FFC700"/>
    <path d="M251.3 135.279L252.494 129.727L254.84 130.188L253.646 135.741L251.3 135.279Z" fill="#FFB000"/>
    <path d="M245.769 134.192L246.964 128.639L249.31 129.101L248.115 134.654L245.769 134.192Z" fill="#FFB000"/>
    <path d="M239.987 133.042L241.182 127.489L243.528 127.951L242.333 133.504L239.987 133.042Z" fill="#FFB000"/>
    <path d="M234.214 131.916L235.409 126.363L237.755 126.825L236.56 132.378L234.214 131.916Z" fill="#FFB000"/>
    <path d="M228.675 130.814L229.87 125.261L232.216 125.723L231.021 131.276L228.675 130.814Z" fill="#FFB000"/>
    <circle cx="163.888" cy="24.8882" r="4.88816" fill="#FFC600" fill-opacity="0.45"/>
    <path d="M137.7 34.1922L29.8928 118.962C34.7303 132.491 43.4833 144.271 55.0359 152.801C66.5884 161.33 80.4171 166.223 94.7588 166.856C109.101 167.489 123.306 163.832 135.563 156.353C147.821 148.873 157.575 137.909 163.583 124.859C170.814 109.146 172.178 91.3589 167.43 74.7245C162.681 58.0901 152.134 43.71 137.7 34.1922Z" fill="url(#paint0_linear)"/>
    <path d="M80.8798 91.0935L80.3031 90.3608C78.7895 88.4371 76.5746 87.1936 74.1454 86.9039C71.7161 86.6141 69.2714 87.3017 67.3485 88.8155L3.51592 139.109C1.59461 140.625 0.353186 142.842 0.0645095 145.273C-0.224166 147.705 0.463534 150.151 1.97645 152.076L2.5532 152.808C4.0668 154.732 6.28166 155.975 8.71089 156.265C11.1401 156.555 13.5849 155.867 15.5078 154.354L79.3359 104.064C80.2882 103.314 81.0836 102.384 81.6766 101.326C82.2695 100.268 82.6485 99.1034 82.7919 97.899C82.9353 96.6945 82.8402 95.4736 82.5121 94.3059C82.184 93.1382 81.6294 92.0466 80.8798 91.0935Z" fill="url(#paint1_linear)" fill-opacity="0.8"/>
    <path d="M108.719 93.7623L108.142 93.0296C106.628 91.1066 104.413 89.864 101.983 89.5751C99.5543 89.2861 97.1099 89.9745 95.1875 91.4887L31.3594 141.778C30.4071 142.528 29.6117 143.459 29.0188 144.517C28.4258 145.575 28.0468 146.739 27.9034 147.943C27.7601 149.148 27.8551 150.369 28.1832 151.536C28.5113 152.704 29.0659 153.796 29.8155 154.749L30.3922 155.482C31.9058 157.405 34.1207 158.649 36.5499 158.938C38.9792 159.228 41.424 158.541 43.3469 157.027L107.179 106.733C109.101 105.218 110.342 103 110.631 100.569C110.919 98.1375 110.232 95.6909 108.719 93.7668V93.7623Z" fill="url(#paint2_linear)" fill-opacity="0.9"/>
    <path d="M169.22 92.9852L113.231 73.58V28.0199C113.226 24.3388 113.946 20.6929 115.351 17.291C116.756 13.889 118.818 10.7981 121.418 8.19514C124.019 5.5922 127.107 3.52847 130.506 2.12221C133.905 0.715938 137.547 -0.00522635 141.225 3.53018e-05C144.903 -0.00581263 148.546 0.714952 151.945 2.12101C155.344 3.52707 158.433 5.59078 161.033 8.19383C163.634 10.7969 165.696 13.8881 167.101 17.2903C168.505 20.6924 169.225 24.3387 169.22 28.0199V92.9852Z" fill="url(#paint3_angular)" fill-opacity="0.65"/>
    <path d="M113.716 165.764H87.4959C86.2722 165.764 85.0986 166.25 84.2333 167.116C83.368 167.982 82.8819 169.157 82.8819 170.382C82.8819 171.607 83.368 172.781 84.2333 173.647C85.0986 174.513 86.2722 175 87.4959 175H113.716C114.939 175 116.113 174.513 116.978 173.647C117.844 172.781 118.33 171.607 118.33 170.382C118.33 169.157 117.844 167.982 116.978 167.116C116.113 166.25 114.939 165.764 113.716 165.764Z" fill="#FF7D00" fill-opacity="0.9"/>
    <path d="M197.637 30.5114C184.713 37.3424 174.325 34.6747 159.388 37.3424V23.6805C174.325 26.3482 210.561 23.6805 197.637 30.5114Z" fill="#FF7D00" fill-opacity="0.9"/>
    <circle cx="138" cy="26" r="4" fill="#4B4B4B"/>
    <defs>
        <linearGradient id="paint0_linear" x1="100.052" y1="34.1922" x2="100.052" y2="166.926" gradientUnits="userSpaceOnUse">
            <stop stop-color="#FFC600" stop-opacity="0"/>
            <stop offset="1" stop-color="#FFC600"/>
        </linearGradient>
        <linearGradient id="paint1_linear" x1="41.4283" y1="86.8389" x2="41.4283" y2="156.33" gradientUnits="userSpaceOnUse">
            <stop offset="0.201389" stop-color="#FFC600" stop-opacity="0"/>
            <stop offset="0.597222" stop-color="#FFC600"/>
        </linearGradient>
        <linearGradient id="paint2_linear" x1="69.267" y1="89.5105" x2="69.267" y2="159.003" gradientUnits="userSpaceOnUse">
            <stop offset="0.425347" stop-color="#FFC600" stop-opacity="0"/>
            <stop offset="1" stop-color="#FFC600"/>
        </linearGradient>
        <radialGradient id="paint3_angular" cx="0" cy="0" r="1" gradientUnits="userSpaceOnUse" gradientTransform="translate(141.225 46.4926) rotate(90.145) scale(89.0077 53.5939)">
            <stop offset="0.019097" stop-color="#FFC600" stop-opacity="0.11"/>
            <stop offset="0.170139" stop-color="#FFC600" stop-opacity="0.16"/>
            <stop offset="0.425347" stop-color="#FFC600" stop-opacity="0.83"/>
            <stop offset="0.649305" stop-color="#FFC600"/>
            <stop offset="0.847222" stop-color="#FFC600" stop-opacity="0.41"/>
            <stop offset="1" stop-color="#FFC600" stop-opacity="0.15"/>
        </radialGradient>
    </defs>
</svg>
