<svg width="171" height="171" viewBox="0 0 171 171" fill="none" xmlns="http://www.w3.org/2000/svg">
    <path d="M151.702 32.3012L138.695 19.2981C136.718 17.3173 133.497 17.3173 131.517 19.2981L125.396 25.4256L145.574 45.6036L151.702 39.4832C153.683 37.4989 153.683 34.2891 151.702 32.3012Z" fill="#E57373"/>
    <path d="M135.49 55.6876L44.7873 146.393L24.6067 126.213L115.309 35.5077L135.49 55.6876Z" fill="#1899D6"/>
    <path d="M115.292 35.5111L125.38 25.4162L145.572 45.5944L135.484 55.6894L115.292 35.5111Z" fill="#B0BEC5"/>
    <path d="M24.5991 126.219L17.8125 153.188L44.7842 146.397L24.5991 126.219Z" fill="#FFC107"/>
    <path d="M21.2503 139.55L17.8125 153.188L31.4462 149.75L21.2503 139.55Z" fill="#37474F"/>
</svg>
