<svg width="66" height="76" viewBox="0 0 66 76" fill="none" xmlns="http://www.w3.org/2000/svg">
    <path d="M7.29712 67.0072L32.3729 75.8954C32.4252 75.8954 32.4774 75.9477 32.5297 75.9477C32.6341 76 32.7909 76 32.8954 76C32.9998 76 33.0521 76 33.1566 76C33.1566 76 33.1566 76 33.2088 76C33.261 76 33.3655 75.9477 33.4178 75.9477L58.4936 67.0595C59.1205 66.8503 59.5384 66.2229 59.5384 65.5955V47.9759L64.7625 46.146C65.1805 45.9892 65.5462 45.6232 65.7029 45.2049C65.8596 44.7866 65.8074 44.2638 65.5462 43.8455L59.2772 33.3888L59.225 33.3365C59.225 33.2842 59.1727 33.2842 59.1727 33.232C59.1727 33.1797 59.1205 33.1797 59.1205 33.1274C59.1205 33.1274 59.1205 33.1274 59.1205 33.0751C59.0682 33.0228 59.0682 33.0228 59.016 32.9705L58.9638 32.9182L58.9115 32.866H58.8593L58.807 32.8137C58.7548 32.7614 58.7026 32.7614 58.6503 32.7614C58.5981 32.7614 58.5981 32.7091 58.5458 32.7091L33.47 23.8209C33.47 23.8209 33.47 23.8209 33.4178 23.8209H33.3655H33.3133C33.261 23.8209 33.261 23.8209 33.2088 23.8209C33.1566 23.8209 33.1566 23.8209 33.1043 23.8209C33.0521 23.8209 33.0521 23.8209 32.9998 23.8209C32.9476 23.8209 32.8954 23.8209 32.7909 23.8209C32.7386 23.8209 32.7386 23.8209 32.6864 23.8209C32.5819 23.8209 32.4774 23.8732 32.4252 23.8732L7.34936 32.7614C7.24488 32.8137 7.19264 32.8137 7.08816 32.866L7.03592 32.9182C6.98367 32.9705 6.93143 32.9705 6.87919 33.0228L6.82695 33.0751C6.77471 33.1274 6.72247 33.1274 6.72247 33.1797L6.67023 33.232C6.61799 33.2842 6.61799 33.3365 6.56574 33.3365C6.56574 33.3365 6.56574 33.3888 6.5135 33.3888L0.244548 43.8455C-0.121141 44.4207 -0.0688997 45.1526 0.349031 45.6232C0.662478 45.9892 1.08041 46.1983 1.55058 46.1983C1.7073 46.1983 1.91627 46.146 2.07299 46.0937L6.2523 44.6298V65.5433C6.2523 66.2229 6.67023 66.7981 7.29712 67.0072ZM61.8893 43.7933L39.8434 51.6358L35.194 43.8978L57.2398 36.0553L61.8893 43.7933ZM34.4626 27.4807L53.2695 34.1731L34.4626 40.8654V27.4807ZM34.4626 48.7079L37.806 54.3023C38.1195 54.8251 38.6419 55.0865 39.1643 55.0865C39.321 55.0865 39.53 55.0342 39.6867 54.982L56.4039 49.0739V64.4453L34.4626 72.2356V48.7079ZM9.38677 36.369L31.3281 44.1592V72.1833L9.38677 64.393V36.369Z" fill="black" fill-opacity="0.2"/>
    <path d="M11.12 14L10.84 13.16L11.12 11.76V4.088H18.05L18.75 4.508L17.826 6.468L16.566 6.328H13.64V7.868H17.406V10.038H15.754L13.64 9.898V11.76H17.826L19.492 13.104L18.666 14H11.12ZM20.1987 8.246L20.6327 7.392H22.7187V7.994L22.8447 8.078C22.9473 7.98467 23.0873 7.87733 23.2647 7.756C23.4513 7.62533 23.6753 7.50867 23.9367 7.406C24.198 7.30333 24.492 7.252 24.8187 7.252C25.7893 7.252 26.4847 7.574 26.9047 8.218C27.0727 7.98467 27.3247 7.76533 27.6607 7.56C28.006 7.34533 28.482 7.238 29.0887 7.238C29.9287 7.238 30.5587 7.476 30.9787 7.952C31.3987 8.428 31.6087 9.09533 31.6087 9.954V11.746L31.9027 13.146L31.6087 14H29.0887V10.318C29.0887 9.96333 29.0093 9.69267 28.8507 9.506C28.7013 9.31 28.4633 9.212 28.1367 9.212C27.922 9.212 27.7353 9.29133 27.5767 9.45C27.418 9.60867 27.3387 9.80933 27.3387 10.052V14H24.8187V10.332C24.8187 9.97733 24.7393 9.70667 24.5807 9.52C24.4313 9.324 24.1933 9.226 23.8667 9.226L22.9987 9.492V14H20.4787V9.786L20.1987 8.246ZM33.3029 17.402V9.772L33.0229 8.232L33.4569 7.378H35.5429V7.98L35.6829 8.05C35.6829 8.05 35.7669 7.98 35.9349 7.84C36.1029 7.7 36.3316 7.56467 36.6209 7.434C36.9196 7.294 37.2649 7.224 37.6569 7.224C38.4876 7.224 39.1362 7.49 39.6029 8.022C40.0789 8.554 40.3169 9.394 40.3169 10.542C40.3169 11.4007 40.1956 12.096 39.9529 12.628C39.7196 13.1507 39.4022 13.5287 39.0009 13.762C38.5996 13.9953 38.1516 14.112 37.6569 14.112C36.9849 14.112 36.5089 14.0607 36.2289 13.958C35.9582 13.846 35.8229 13.79 35.8229 13.79V17.402H33.3029ZM36.4669 12.194C36.8216 12.194 37.1062 12.068 37.3209 11.816C37.5449 11.564 37.6569 11.1813 37.6569 10.668C37.6569 10.164 37.5682 9.79533 37.3909 9.562C37.2136 9.32867 36.9522 9.212 36.6069 9.212L35.8229 9.506V12.012C35.8229 12.012 35.8696 12.0447 35.9629 12.11C36.0656 12.166 36.2336 12.194 36.4669 12.194ZM43.928 14.14C43.2933 14.14 42.7847 13.9533 42.402 13.58C42.0193 13.2067 41.828 12.7353 41.828 12.166V9.114H40.806V7.784L41.688 7.098L42.682 5.362H44.334V7.392H46.294V9.212H44.334V12.208L46.294 12.194V13.72C46.294 13.72 46.182 13.7573 45.958 13.832C45.7433 13.8973 45.4587 13.9627 45.104 14.028C44.7493 14.1027 44.3573 14.14 43.928 14.14ZM48.123 17.402L46.149 16.702L46.709 14.616L48.669 15.176C49.0703 15.176 49.3597 15.0687 49.537 14.854C49.7237 14.6487 49.8637 14.3593 49.957 13.986H48.515L46.975 9.198L46.709 7.378H49.369L50.139 11.998H50.419L51.189 7.378H53.849C53.849 7.378 53.8163 7.52733 53.751 7.826C53.695 8.11533 53.611 8.50267 53.499 8.988C53.3963 9.47333 53.2703 10.01 53.121 10.598C52.981 11.1767 52.8317 11.7647 52.673 12.362C52.5143 12.95 52.351 13.4913 52.183 13.986C51.931 14.7607 51.6277 15.4 51.273 15.904C50.9277 16.408 50.503 16.7813 49.999 17.024C49.495 17.276 48.8697 17.402 48.123 17.402Z" fill="black" fill-opacity="0.2"/>
</svg>
