<svg width="171" height="171" viewBox="0 0 171 171" fill="none" xmlns="http://www.w3.org/2000/svg">
    <path id="color-target" d="M145.741 75.8131L129.808 73.2091C128.875 70.0121 127.6 66.939 126.004 64.0304L135.305 50.7759C136.057 49.7057 135.928 48.2474 135.003 47.3201L124.519 36.8421C123.583 35.9094 122.111 35.7881 121.038 36.5617L107.982 45.9453C105.046 44.3225 101.946 43.034 98.73 42.0986L95.9505 26.232C95.7241 24.9435 94.6053 24 93.2951 24H78.4677C77.1467 24 76.0198 24.957 75.8068 26.2617L73.2296 42.042C69.9945 42.972 66.8889 44.247 63.9638 45.8483L50.9427 36.5483C49.867 35.78 48.4032 35.904 47.4677 36.834L36.9888 47.312C36.0641 48.2366 35.9347 49.6923 36.6868 50.7624L45.8502 63.8714C44.2191 66.8231 42.9197 69.9474 41.9735 73.1983L26.2538 75.8158C24.9543 76.0315 24 77.1583 24 78.4737V93.2998C24 94.6072 24.9382 95.7259 26.2241 95.955L41.9438 98.7423C42.8847 101.985 44.1841 105.109 45.8205 108.069L36.544 121.043C35.7783 122.114 35.8996 123.583 36.8297 124.518L47.3113 135.007C48.236 135.932 49.6945 136.061 50.7648 135.309L63.8937 126.114C66.8403 127.734 69.9541 129.02 73.1811 129.953L75.8122 145.752C76.0252 147.048 77.1494 148 78.4677 148H93.2951C94.6026 148 95.7214 147.062 95.9478 145.776L98.765 129.899C101.997 128.947 105.095 127.653 108.012 126.03L121.235 135.306C122.308 136.064 123.764 135.932 124.691 135.007L135.173 124.518C136.106 123.583 136.227 122.108 135.453 121.035L126.023 107.943C127.622 105.031 128.892 101.953 129.816 98.7558L145.77 95.955C147.062 95.7286 148 94.6072 148 93.2998V78.4737C148.003 77.1529 147.046 76.0261 145.741 75.8131ZM86 104.87C75.5777 104.87 67.1288 96.4214 67.1288 86C67.1288 75.5786 75.5777 67.1304 86 67.1304C96.4223 67.1304 104.871 75.5786 104.871 86C104.871 96.4214 96.4223 104.87 86 104.87Z" fill="#03A6FF"/>
</svg>
