<svg width="171" height="171" viewBox="0 0 171 171" fill="none" xmlns="http://www.w3.org/2000/svg">
    <path d="M156.75 85.5C156.75 124.848 124.848 156.75 85.5 156.75C46.1522 156.75 14.25 124.848 14.25 85.5C14.25 46.1522 46.1522 14.25 85.5 14.25C124.848 14.25 156.75 46.1522 156.75 85.5Z" fill="white"/>
    <path id="color-target" d="M74.8125 59.875C74.8125 54.3522 79.2897 49.875 84.8125 49.875H86.1875C91.7103 49.875 96.1875 54.3522 96.1875 59.875V111.125C96.1875 116.648 91.7103 121.125 86.1875 121.125H84.8125C79.2897 121.125 74.8125 116.648 74.8125 111.125V59.875Z" fill="#03A6FF"/>
    <path id="color-target" d="M49.875 84.8125C49.875 79.2897 54.3522 74.8125 59.875 74.8125H111.125C116.648 74.8125 121.125 79.2897 121.125 84.8125V86.1875C121.125 91.7103 116.648 96.1875 111.125 96.1875H59.875C54.3522 96.1875 49.875 91.7103 49.875 86.1875V84.8125Z" fill="#03A6FF"/>
</svg>
