<svg width="64" height="64" viewBox="0 0 64 64" fill="none" xmlns="http://www.w3.org/2000/svg">
    <path d="M59.0001 20H60.5001C62.6681 20 64.3921 18.002 63.9221 15.757C63.5801 14.122 62.0561 13 60.3851 13H53.0001C51.8951 13 51.0001 12.105 51.0001 11C51.0001 9.895 51.8951 9 53.0001 9H56.3851C58.0551 9 59.5801 7.878 59.9221 6.243C60.3921 3.998 58.6681 2 56.5001 2H34.0061H32.5001H8.50006C6.57506 2 5.00006 3.575 5.00006 5.5C5.00006 7.425 6.57506 9 8.50006 9H10.0001C11.1051 9 12.0001 9.895 12.0001 11C12.0001 12.105 11.1051 13 10.0001 13H4.61506C2.94506 13 1.42006 14.122 1.07806 15.757C0.608058 18.002 2.33206 20 4.50006 20H18.0001V32H4.61506C2.94506 32 1.42006 33.122 1.07806 34.757C0.608058 37.002 2.33206 39 4.50006 39H5.00006C6.10506 39 7.00006 39.895 7.00006 41C7.00006 42.105 6.10506 43 5.00006 43H4.50006C2.33206 43 0.608058 44.998 1.07806 47.243C1.42006 48.878 2.94506 50 4.61506 50H10.0001C11.1051 50 12.0001 50.895 12.0001 52C12.0001 53.105 11.1051 54 10.0001 54H8.61506C6.94506 54 5.42006 55.122 5.07806 56.757C4.60806 59.002 6.33206 61 8.50006 61H30.9941H32.5001H55.5001C57.4251 61 59.0001 59.425 59.0001 57.5C59.0001 55.575 57.4251 54 55.5001 54H55.0001C53.8951 54 53.0001 53.105 53.0001 52C53.0001 50.895 53.8951 50 55.0001 50H59.3851C61.0551 50 62.5801 48.878 62.9221 47.243C63.3921 44.998 61.6681 43 59.5001 43H47.0001V31H59.3851C61.0551 31 62.5801 29.878 62.9221 28.243C63.3921 25.998 61.6681 24 59.5001 24H59.0001C57.8951 24 57.0001 23.105 57.0001 22C57.0001 20.895 57.8951 20 59.0001 20Z" fill="url(#paint0_radial)"/>
    <path d="M57 31C57 44.805 45.805 56 32 56C18.195 56 7 44.805 7 31C7 17.195 18.195 6 32 6C45.805 6 57 17.195 57 31Z" fill="url(#paint1_linear)"/>
    <path d="M50 31C50 40.94 41.94 49 32 49C22.06 49 14 40.94 14 31C14 21.06 22.06 13 32 13C41.94 13 50 21.06 50 31Z" fill="white"/>
    <path d="M40.414 36.586L34.414 30.586C34.288 30.46 34.147 30.362 34 30.277V18C34 16.895 33.105 16 32 16C30.895 16 30 16.895 30 18V32C30 33.105 30.895 34 32 34C32.053 34 32.104 33.988 32.156 33.984L37.586 39.414C38.367 40.195 39.633 40.195 40.414 39.414C41.195 38.633 41.195 37.367 40.414 36.586Z" fill="url(#paint2_linear)"/>
    <path d="M32 27C30.9391 27 29.9217 27.4214 29.1716 28.1716C28.4214 28.9217 28 29.9391 28 31C28 32.0609 28.4214 33.0783 29.1716 33.8284C29.9217 34.5786 30.9391 35 32 35C33.0609 35 34.0783 34.5786 34.8284 33.8284C35.5786 33.0783 36 32.0609 36 31C36 29.9391 35.5786 28.9217 34.8284 28.1716C34.0783 27.4214 33.0609 27 32 27Z" fill="url(#paint3_linear)"/>
    <defs>
        <radialGradient id="paint0_radial" cx="0" cy="0" r="1" gradientUnits="userSpaceOnUse" gradientTransform="translate(32.5001 31.5) scale(30.516)">
            <stop stop-color="#AFEEFF"/>
            <stop offset="0.193" stop-color="#BBF1FF"/>
            <stop offset="0.703" stop-color="#D7F8FF"/>
            <stop offset="1" stop-color="#E1FAFF"/>
        </radialGradient>
        <linearGradient id="paint1_linear" x1="32" y1="68.612" x2="32" y2="18.611" gradientUnits="userSpaceOnUse">
            <stop stop-color="#155CDE"/>
            <stop offset="0.278" stop-color="#1F7FE5"/>
            <stop offset="0.569" stop-color="#279CEB"/>
            <stop offset="0.82" stop-color="#2CAFEF"/>
            <stop offset="1" stop-color="#2EB5F0"/>
        </linearGradient>
        <linearGradient id="paint2_linear" x1="35.5" y1="16" x2="35.5" y2="40" gradientUnits="userSpaceOnUse">
            <stop stop-color="#A4A4A4"/>
            <stop offset="0.619" stop-color="#808080"/>
            <stop offset="1" stop-color="#6F6F6F"/>
        </linearGradient>
        <linearGradient id="paint3_linear" x1="32" y1="27" x2="32" y2="35" gradientUnits="userSpaceOnUse">
            <stop stop-color="#A4A4A4"/>
            <stop offset="0.619" stop-color="#808080"/>
            <stop offset="1" stop-color="#6F6F6F"/>
        </linearGradient>
    </defs>
</svg>
